{"title":"American Outlaws  (Western 2001)  Colin Farrell, Scott Caan &amp;amp","uid":9263706,"size":445651350,"categoryP":"video","categoryS":"movies","magnet":"?xt=urn:btih:0c0fc54db35b2603851ac32ce3085960d2cf866d&amp;dn=American+Outlaws++%28Western+2001%29++Colin+Farrell%2C+Scott+Caan+%26amp&amp;tr=udp%3A%2F%2Ftracker.openbittorrent.com%3A80&amp;tr=udp%3A%2F%2Fopen.demonii.com%3A1337&amp;tr=udp%3A%2F%2Ftracker.coppersurfer.tk%3A6969&amp;tr=udp%3A%2F%2Fexodus.desync.com%3A6969","seeders":4,"leechers":0,"uploader":"BurtonW","files":1,"time":1385665447,"description":" &lt;a href=&quot;http://www.imdb.com/title/tt0244000/?ref_=nv_sr_1&quot; rel=&quot;nofollow&quot; target=&quot;_NEW&quot;&gt;http://www.imdb.com/title/tt0244000/?ref_=nv_sr_1&lt;/a&gt;\n\n\nVery good quality film.\n\n\nNo subtitles!\n\n\nStoryline:\n\nWhen a Midwest town learns that a corrupt railroad baron has captured the deeds to their homesteads without their knowledge, a group of young ranchers join forces to take back what is rightfully theirs. In the course of their vendetta, they will become the object of the biggest manhunt in the history of the Old West and, as their fame grows, so will the legend of their leader, a young outlaw by the name of Jesse James.\n\n\n\nTechnical info:\n\n\nGeneral:\n\nComplete name                  : American Outlaws  (Western 2001)  Colin Farrell, Scott Caan &amp; Ali Larter.mp4\nFormat                         : MPEG-4\nFormat profile                 : Base Media / Version 2\nCodec ID                       : mp42\nFile size                      : 425 MiB\nDuration                       : 1h 34mn\nOverall bit rate mode          : Variable\nOverall bit rate               : 628 Kbps\nEncoded date                   : UTC 2013-10-06 22:58:37\nTagged date                    : UTC 2013-10-06 23:39:45\n\nVideo:\n\nID                             : 1\nFormat                         : AVC\nFormat/Info                    : Advanced Video Codec\nFormat profile                 : &lt;a class=&quot;__cf_email__&quot; href=&quot;/cdn-cgi/l/email-protection&quot; data-cfemail=&quot;276a464e49676b130917&quot;&gt;[email&amp;#160;protected]&lt;/a&gt;&lt;script cf-hash='f9e31' type=&quot;text/javascript&quot;&gt;\n/* &lt;![CDATA[ */!function(){try{var t=&quot;currentScript&quot;in document?document.currentScript:function(){for(var t=document.getElementsByTagName(&quot;script&quot;),e=t.length;e--;)if(t[e].getAttribute(&quot;cf-hash&quot;))return t[e]}();if(t&amp;&amp;t.previousSibling){var e,r,n,i,c=t.previousSibling,a=c.getAttribute(&quot;data-cfemail&quot;);if(a){for(e=&quot;&quot;,r=parseInt(a.substr(0,2),16),n=2;a.length-n;n+=2)i=parseInt(a.substr(n,2),16)^r,e+=String.fromCharCode(i);e=document.createTextNode(e),c.parentNode.replaceChild(e,c)}}}catch(u){}}();/* ]]&gt; */&lt;/script&gt;\nFormat settings, CABAC         : Yes\nFormat settings, ReFrames      : 4 frames\nCodec ID                       : avc1\nCodec ID/Info                  : Advanced Video Coding\nDuration                       : 1h 34mn\nBit rate mode                  : Variable\nBit rate                       : 464 Kbps\nWidth                          : 560 pixels\nHeight                         : 240 pixels\nDisplay aspect ratio           : 2.35:1\nFrame rate mode                : Constant\nFrame rate                     : 24.000 fps\nColor space                    : YUV\nChroma subsampling             : 4:2:0\nBit depth                      : 8 bits\nScan type                      : Progressive\nBits/(Pixel*Frame)             : 0.144\nStream size                    : 314 MiB (74%)\nWriting library                : x264 core 130 r2273 b3065e6\nEncoding settings              : Deleted\nEncoded date                   : UTC 2013-10-06 22:58:37\nTagged date                    : UTC 2013-10-06 23:39:45\nColor primaries                : BT.601 NTSC\nTransfer characteristics       : BT.709\nMatrix coefficients            : BT.601\n\nAudio:\n\nID                             : 2\nFormat                         : AAC\nFormat/Info                    : Advanced Audio Codec\nFormat profile                 : LC\nCodec ID                       : 40\nDuration                       : 1h 34mn\nBit rate mode                  : Variable\nBit rate                       : 160 Kbps\nMaximum bit rate               : 259 Kbps\nChannel(s)                     : 2 channels\nChannel positions              : Front: L R\nSampling rate                  : 48.0 KHz\nCompression mode               : Lossy\nDelay relative to video        : 83ms\nStream size                    : 108 MiB (25%)\nEncoded date                   : UTC 2013-10-06 22:58:37\nTagged date                    : UTC 2013-10-06 23:39:45\n","torrent":{"xt":"urn:btih:0c0fc54db35b2603851ac32ce3085960d2cf866d","amp;dn":"American+Outlaws++%28Western+2001%29++Colin+Farrell%2C+Scott+Caan+%26amp","amp;tr":["udp%3A%2F%2Ftracker.openbittorrent.com%3A80","udp%3A%2F%2Fopen.demonii.com%3A1337","udp%3A%2F%2Ftracker.coppersurfer.tk%3A6969","udp%3A%2F%2Fexodus.desync.com%3A6969"],"infoHash":"0c0fc54db35b2603851ac32ce3085960d2cf866d","infoHashBuffer":{"type":"Buffer","data":[12,15,197,77,179,91,38,3,133,26,195,44,227,8,89,96,210,207,134,109]},"announce":[],"urlList":[]}}